<?xml version="1.0" encoding="UTF-8"?>
<svg version="1.1" xmlns="http://www.w3.org/2000/svg" width="800" height="697">
<path d="M0 0 C3.08663505 0.0078651 6.17326037 0.01236611 9.25990295 0.01613998 C37.82629688 0.05678896 66.3468225 0.24370466 94.86299133 2.10277939 C97.3502405 2.2615586 99.83796686 2.40752181 102.32618713 2.55022812 C187.30650634 7.46531541 287.65686897 17.27773637 356.77931213 83.92620468 C411.27155035 148.08967038 415.47004149 243.74935662 408.97413635 323.9257164 C405.52614585 362.18150407 398.37249341 400.5440643 381.2905426 435.25774765 C380.73028381 436.41282822 380.73028381 436.41282822 380.15870667 437.59124374 C371.70508993 454.86801501 360.9548563 469.84455254 348.2905426 484.25774765 C347.64343323 485.02731796 346.99632385 485.79688828 346.3296051 486.5897789 C342.34325917 491.30665429 338.01119015 495.28829193 333.2905426 499.25774765 C332.36628479 500.06985703 331.44202698 500.8819664 330.48976135 501.71868515 C316.22894434 514.18325767 300.39647409 524.3597628 284.2905426 534.25774765 C283.68661682 534.62899765 283.08269104 535.00024765 282.46046448 535.38274765 C278.09672741 538.05256593 273.69692574 540.65926981 269.2905426 543.25774765 C268.26670471 543.8624791 267.24286682 544.46721054 266.18800354 545.09026718 C252.59528493 553.11459603 238.96551216 561.06046428 225.20191956 568.78924179 C219.58843561 571.94492737 214.01608053 575.15909551 208.4780426 578.44524765 C202.17986431 582.17943383 195.81913974 585.78134764 189.4065094 589.3151207 C185.33216115 591.56210202 181.27293974 593.83108945 177.2358551 596.1444664 C162.11151617 604.80194187 146.75796596 612.98898435 131.32826233 621.08495712 C127.18313774 623.26010359 123.04591593 625.44919106 118.9155426 627.6522789 C108.9334823 632.95665297 98.84986376 637.98279898 88.6030426 642.75774765 C87.55181213 643.25065292 86.50058167 643.7435582 85.41749573 644.25139999 C66.64675573 652.87104298 66.64675573 652.87104298 57.3530426 652.69524765 C56.31276917 652.69395859 55.27249573 652.69266953 54.20069885 652.6913414 C50.87183707 652.19536334 48.9788881 651.26110459 46.2905426 649.25774765 C43.01708224 643.80198039 42.76589073 639.44347809 44.2905426 633.25774765 C47.79427619 621.88060512 52.34821038 610.83101401 56.58488464 599.71206284 C68.23354248 572.66564517 68.23354248 572.66564517 66.7280426 544.32024765 C62.52118018 536.3169484 55.64124201 532.91303917 47.2905426 530.25774765 C36.69499395 527.28387097 25.83518355 527.04468673 14.90382385 526.7225914 C13.51532216 526.6794315 12.12682842 526.63601521 10.73834229 526.59235764 C7.83791874 526.50192788 4.93743534 526.41392894 2.03688049 526.32781601 C-1.63962097 526.21856688 -5.31594331 526.10427428 -8.99223614 525.98823833 C-11.85876375 525.89816555 -14.72535666 525.8103309 -17.59197426 525.72317314 C-19.59346027 525.66208198 -21.59490305 525.59957939 -23.59634399 525.53702927 C-29.744994 525.35612185 -35.88194145 525.24176106 -42.03343201 525.26482773 C-47.56968456 525.28099037 -53.05390514 525.1126045 -58.5766449 524.74212265 C-59.44678223 524.68656204 -60.31691956 524.63100143 -61.21342468 524.57375717 C-64.00428895 524.39206787 -66.79439793 524.20138615 -69.5844574 524.00774765 C-70.54833374 523.94150192 -71.51221008 523.8752562 -72.5052948 523.80700302 C-98.85845268 521.97152192 -124.86577478 518.88283419 -150.7094574 513.25774765 C-151.57361267 513.07131699 -152.43776794 512.88488632 -153.32810974 512.69280624 C-186.6922893 505.33604723 -220.88589941 492.44726535 -248.7094574 472.25774765 C-249.71750427 471.53458359 -250.72555115 470.81141953 -251.7641449 470.0663414 C-268.91100289 457.34245044 -284.03157731 442.17899652 -295.7094574 424.25774765 C-296.27164978 423.40189072 -296.27164978 423.40189072 -296.84519958 422.52874374 C-311.61751318 399.92511244 -321.7627548 375.33601705 -328.7094574 349.25774765 C-328.93085388 348.44144882 -329.15225037 347.62514999 -329.38035583 346.78411484 C-348.24261363 275.79444268 -340.26268785 189.48228052 -303.41404724 125.56438828 C-289.62629956 102.32890489 -272.04562939 80.91166743 -250.7094574 64.25774765 C-250.11745544 63.79465195 -249.52545349 63.33155624 -248.91551208 62.85442734 C-177.48367538 7.27187335 -87.4296228 -0.23887936 0 0 Z " fill="#126769" transform="translate(363.70945739746094,21.742252349853516)"/>
<path d="M0 0 C5.21281663 2.60640832 7.10216579 13.54313953 8.93310547 18.76855469 C37.27705353 104.61763856 37.11721717 223.47439503 -3 305 C-3.56025879 306.15508057 -3.56025879 306.15508057 -4.13183594 307.33349609 C-12.58545268 324.61026736 -23.33568631 339.58680489 -36 354 C-36.64710938 354.76957031 -37.29421875 355.53914063 -37.9609375 356.33203125 C-41.94728343 361.04890664 -46.27935246 365.03054428 -51 369 C-51.92425781 369.81210937 -52.84851563 370.62421875 -53.80078125 371.4609375 C-68.06159826 383.92551002 -83.89406851 394.10201515 -100 404 C-100.60392578 404.37125 -101.20785156 404.7425 -101.83007812 405.125 C-106.1938152 407.79481828 -110.59361686 410.40152216 -115 413 C-116.02383789 413.60473145 -117.04767578 414.20946289 -118.10253906 414.83251953 C-131.69525767 422.85684838 -145.32503044 430.80271663 -159.08862305 438.53149414 C-164.702107 441.68717972 -170.27446208 444.90134786 -175.8125 448.1875 C-182.11067829 451.92168618 -188.47140286 455.52359999 -194.8840332 459.05737305 C-198.95838145 461.30435437 -203.01760287 463.5733418 -207.0546875 465.88671875 C-222.17902643 474.54419422 -237.53257664 482.7312367 -252.96228027 490.82720947 C-257.10740486 493.00235594 -261.24462668 495.19144341 -265.375 497.39453125 C-275.35706031 502.69890532 -285.44067885 507.72505133 -295.6875 512.5 C-296.73873047 512.99290527 -297.78996094 513.48581055 -298.87304688 513.99365234 C-317.64378687 522.61329533 -317.64378687 522.61329533 -326.9375 522.4375 C-327.97777344 522.43621094 -329.01804687 522.43492187 -330.08984375 522.43359375 C-333.41870553 521.93761569 -335.3116545 521.00335694 -338 519 C-341.27346036 513.54423274 -341.52465187 509.18573044 -340 503 C-336.49626641 491.62285747 -331.94233222 480.57326636 -327.70565796 469.45431519 C-316.05700012 442.40789752 -316.05700012 442.40789752 -317.5625 414.0625 C-321.76936243 406.05920075 -328.6493006 402.65529152 -337 400 C-347.59554865 397.02612332 -358.45535906 396.78693908 -369.38671875 396.46484375 C-370.77522044 396.42168385 -372.16371418 396.37826756 -373.55220032 396.33460999 C-376.45262386 396.24418023 -379.35310726 396.15618129 -382.25366211 396.07006836 C-385.93016357 395.96081923 -389.60648591 395.84652663 -393.28277874 395.73049068 C-396.14930635 395.6404179 -399.01589926 395.55258325 -401.88251686 395.46542549 C-403.88400287 395.40433433 -405.88544565 395.34183174 -407.8868866 395.27928162 C-414.0355366 395.0983742 -420.17248405 394.98401341 -426.32397461 395.00708008 C-431.86022716 395.02324272 -437.34444774 394.85485685 -442.8671875 394.484375 C-443.73732483 394.42881439 -444.60746216 394.37325378 -445.50396729 394.31600952 C-448.29483155 394.13432022 -451.08494053 393.9436385 -453.875 393.75 C-455.32081451 393.65063141 -455.32081451 393.65063141 -456.7958374 393.54925537 C-483.14899528 391.71377427 -509.15631738 388.62508653 -535 383 C-535.86415527 382.81356934 -536.72831055 382.62713867 -537.61865234 382.43505859 C-559.12719982 377.69245133 -580.14671637 370.52438574 -600 361 C-600 360.01 -600 359.02 -600 358 C-601.2684375 357.62875 -601.2684375 357.62875 -602.5625 357.25 C-606.38427474 355.86026373 -609.51868063 354.08879162 -613 352 C-613 351.34 -613 350.68 -613 350 C-608.70856873 349.22389009 -604.47415657 348.74815404 -600.125 348.4375 C-598.39636719 348.31181641 -598.39636719 348.31181641 -596.6328125 348.18359375 C-595.76398438 348.12300781 -594.89515625 348.06242187 -594 348 C-618.5825996 350.55522149 -618.5825996 350.55522149 -626.25 345.25 C-627.85816428 343.86158488 -629.44427614 342.44693198 -631 341 C-632.64355319 339.96244966 -634.30435824 338.95004042 -636 338 C-632.28868532 329.69547408 -624.5070757 324.76714307 -617.08984375 320.015625 C-614.05011483 318.03269185 -611.1542863 315.92519362 -608.25 313.75 C-604.00310497 310.62746279 -599.79913108 308.15318158 -595 306 C-591.24762919 304.16550761 -587.58639329 302.21759236 -583.9375 300.1875 C-578.68309489 297.3011761 -573.30899577 294.76542701 -567.84765625 292.296875 C-566.19607554 291.54471479 -564.55248452 290.77328138 -562.93359375 289.953125 C-559.85012189 288.4331914 -556.6380463 287.24899368 -553.4375 286 C-551.03261128 285.05432551 -551.03261128 285.05432551 -548.9375 283.9375 C-546.96045293 282.98086432 -545.12712262 282.52042223 -543 282 C-541.59220624 281.40242789 -540.19664613 280.77547305 -538.8125 280.125 C-535.74485433 278.72924632 -532.71074444 277.52338965 -529.5 276.5 C-525.67634616 275.27404513 -522.07861248 273.75498524 -518.42871094 272.08789062 C-510.70851843 268.62979073 -502.85420535 265.90644725 -494.75 263.5 C-493.74582031 263.19884277 -492.74164063 262.89768555 -491.70703125 262.58740234 C-488.80617119 261.71985105 -485.90329773 260.85935119 -483 260 C-482.23880859 259.7721582 -481.47761719 259.54431641 -480.69335938 259.30957031 C-470.08779863 256.13597483 -470.08779863 256.13597483 -465.6875 255.5859375 C-462.84321811 255.13398593 -460.63013896 254.59972786 -457.95703125 253.6640625 C-451.6475126 251.46933193 -445.17540675 249.94279868 -438.6875 248.375 C-437.64361618 248.12088348 -437.64361618 248.12088348 -436.5786438 247.8616333 C-422.6471478 244.48362539 -408.62168134 241.619831 -394.568573 238.79916382 C-381.06591632 236.08612345 -367.6846743 233.15963255 -354.36914062 229.62451172 C-350.58896637 228.62804781 -346.79439016 227.69056992 -343 226.75 C-341.824375 226.45609375 -340.64875 226.1621875 -339.4375 225.859375 C-338.303125 225.57578125 -337.16875 225.2921875 -336 225 C-334.21529297 224.47792969 -334.21529297 224.47792969 -332.39453125 223.9453125 C-326.59153315 222.49838898 -320.63621882 222.43673708 -314.6875 222.125 C-273.20103615 219.55650328 -229.56937097 210.33369956 -191.5546875 193.1171875 C-176.93624714 186.52020174 -165.95053461 181.70138469 -150 186.5625 C-143.43150856 189.36769033 -138.16652309 193.48071976 -134.75 199.8125 C-133.27527263 202.94232383 -133.27527263 202.94232383 -131.25 204.5 C-127.57328726 205.31704728 -124.5056502 205.30058962 -121 204 C-107.91922464 194.05405098 -100.21319845 171.44091943 -98 156 C-97.21263894 146.56992496 -97.78115757 137.86198382 -100.44140625 128.734375 C-101.06851138 125.66462961 -101.14470505 123.92370553 -100 121 C-97.875 119.5859375 -97.875 119.5859375 -95 118.375 C-78.64610617 110.81205506 -63.83441415 99.41636469 -50 88 C-49.1970752 87.34257812 -49.1970752 87.34257812 -48.37792969 86.671875 C-23.43770774 66.16766091 -4.24148477 40.84401499 -0.66015625 7.87109375 C-0.4156524 5.24853872 -0.19307125 2.6267851 0 0 Z " fill="#EC5859" transform="translate(748,152)"/>
<path d="M0 0 C3.08663505 0.0078651 6.17326037 0.01236611 9.25990295 0.01613998 C37.82629688 0.05678896 66.3468225 0.24370466 94.86299133 2.10277939 C97.3502405 2.2615586 99.83796686 2.40752181 102.32618713 2.55022812 C187.30650634 7.46531541 287.65686897 17.27773637 356.77931213 83.92620468 C363.75553571 92.14056138 369.76321983 101.02170808 375.2905426 110.25774765 C375.70674866 110.93241074 376.12295471 111.60707382 376.55177307 112.30218124 C382.51568099 122.063956 385.91718168 129.53293319 384.2905426 141.25774765 C384.06431213 143.17007187 384.06431213 143.17007187 383.83351135 145.1210289 C379.17538236 178.37071298 353.12623038 205.4662235 327.59913635 225.13274765 C318.49460563 231.99921215 308.95875898 238.21990816 299.2905426 244.25774765 C298.38948792 244.82380722 298.38948792 244.82380722 297.4702301 245.40130234 C287.71648577 251.48625813 287.71648577 251.48625813 281.2905426 252.25774765 C280.8264801 250.43243515 280.8264801 250.43243515 280.3530426 248.57024765 C277.16081514 238.88613454 269.5871326 229.26247404 262.2905426 222.25774765 C259.74498954 219.7209422 257.20917589 217.17528303 254.68507385 214.61712265 C253.83300354 213.7560289 252.98093323 212.89493515 252.1030426 212.00774765 C250.81333557 210.70063828 250.81333557 210.70063828 249.49757385 209.36712265 C247.47623195 207.22780527 247.47623195 207.22780527 245.2905426 206.25774765 C245.2905426 205.59774765 245.2905426 204.93774765 245.2905426 204.25774765 C244.3005426 203.92774765 243.3105426 203.59774765 242.2905426 203.25774765 C242.2905426 202.59774765 242.2905426 201.93774765 242.2905426 201.25774765 C241.4091864 200.84480453 241.4091864 200.84480453 240.51002502 200.42351913 C238.38226888 199.3059264 236.6552535 198.09913213 234.77882385 196.6054039 C234.11229797 196.08172226 233.44577209 195.55804062 232.75904846 195.01848984 C232.04756653 194.45806992 231.33608459 193.89764999 230.6030426 193.32024765 C204.74806582 173.28660784 175.21652019 157.76360442 144.2280426 147.38274765 C143.23402435 147.04942932 143.23402435 147.04942932 142.21992493 146.70937729 C130.3909516 142.76644547 118.52675546 139.6588923 106.2905426 137.25774765 C104.85421139 136.96151824 103.41800656 136.66467514 101.98194885 136.36712265 C80.62048734 132.04656746 59.03526818 130.90164936 37.2905426 131.25774765 C35.72916565 131.27660019 35.72916565 131.27660019 34.13624573 131.29583359 C12.28559784 131.60689743 -9.01942767 133.76845075 -30.1235199 139.6210289 C-37.44396754 140.92084695 -42.88963413 139.1714309 -49.2719574 135.82024765 C-49.95814148 135.46535263 -50.64432556 135.11045761 -51.3513031 134.7448082 C-69.93514362 124.91331589 -86.29467763 112.92590914 -93.36180115 92.35931015 C-95.49958147 79.43654818 -93.69195203 67.88900911 -86.3344574 57.00774765 C-85.13941556 55.41435853 -83.93207758 53.83007516 -82.7094574 52.25774765 C-82.28277771 51.6544664 -81.85609802 51.05118515 -81.41648865 50.42962265 C-62.31541568 25.27497887 -20.26958918 15.14850984 8.6030426 7.38274765 C9.34868469 7.17955917 10.09432678 6.9763707 10.86256409 6.76702499 C15.99265321 5.43145575 21.01157059 4.7476029 26.2905426 4.25774765 C26.2905426 3.59774765 26.2905426 2.93774765 26.2905426 2.25774765 C-25.1894574 2.75274765 -25.1894574 2.75274765 -77.7094574 3.25774765 C-77.7094574 2.92774765 -77.7094574 2.59774765 -77.7094574 2.25774765 C-51.79379535 0.3858666 -25.97740739 -0.0709767 0 0 Z " fill="#21C6B2" transform="translate(363.70945739746094,21.742252349853516)"/>
<path d="M0 0 C3.04691454 0.01073029 6.09323976 0.00003068 9.14013672 -0.01269531 C25.50358767 -0.02560736 41.29834915 1.34229136 57.36279297 4.51074219 C58.46461914 4.72690186 59.56644531 4.94306152 60.70166016 5.16577148 C119.28174201 17.02126424 182.65918802 48.1879926 217.30810547 98.74511719 C226.5380344 112.85782602 230.08155252 126.89628678 227.13134766 143.63818359 C225.09414574 152.1706202 222.04991666 164.26099306 214.55029297 169.26074219 C214.03982422 168.74125 213.52935547 168.22175781 213.00341797 167.68652344 C201.80690372 156.94660462 188.00254662 153.70365797 172.88354492 153.62036133 C163.71992883 153.85928876 157.06042012 157.0035436 149.02294922 161.08007812 C144.38171295 163.29621345 139.55908289 165.04244331 134.73779297 166.82324219 C133.72072266 167.19989014 132.70365234 167.57653809 131.65576172 167.96459961 C76.01886589 188.38217391 15.7279093 198.35826281 -43.44970703 190.26074219 C-44.3767041 190.13715332 -45.30370117 190.01356445 -46.25878906 189.88623047 C-97.76981992 182.76429307 -151.83473286 163.94753775 -191.44970703 129.26074219 C-192.30951172 128.52210938 -193.16931641 127.78347656 -194.05517578 127.02246094 C-210.43968028 112.67052735 -210.43968028 112.67052735 -211.85595703 103.68261719 C-211.90236328 102.36003906 -211.90236328 102.36003906 -211.94970703 101.01074219 C-212.00126953 100.13933594 -212.05283203 99.26792969 -212.10595703 98.37011719 C-210.31791223 89.89819062 -203.0944497 83.38715827 -197.13720703 77.51074219 C-196.35176514 76.73214844 -195.56632324 75.95355469 -194.75708008 75.15136719 C-187.17815319 67.77489888 -179.08991467 61.34065455 -170.44970703 55.26074219 C-169.82531738 54.81827148 -169.20092773 54.37580078 -168.55761719 53.91992188 C-140.0222051 33.86555258 -108.15146348 18.50328309 -74.38183594 9.76318359 C-72.72741694 9.3329594 -71.07819798 8.88282314 -69.43017578 8.42871094 C-62.95896162 6.69749914 -56.40582576 5.4292224 -49.82470703 4.19824219 C-48.54708496 3.95448853 -48.54708496 3.95448853 -47.24365234 3.70581055 C-31.48537679 0.8452967 -15.99146586 -0.06679166 0 0 Z " fill="#FDFEFE" transform="translate(406.44970703125,167.7392578125)"/>
<path d="M0 0 C0.474375 0.94875 0.94875 1.8975 1.4375 2.875 C4.51402841 8.24003375 8.76909877 12.53330013 13 17 C13.70640625 17.78246094 14.4128125 18.56492187 15.140625 19.37109375 C42.6876257 48.69998086 84.5439472 66.29362355 122.0625 78.375 C122.72612549 78.58946777 123.38975098 78.80393555 124.07348633 79.02490234 C137.73193816 83.23231833 151.79060537 85.83906583 165.875 88.125 C166.66491333 88.25417816 167.45482666 88.38335632 168.26867676 88.51644897 C190.56173343 92.1503308 212.43621071 93.48590422 235 94 C231.42837839 96.04020061 227.67323065 96.94448466 223.70703125 97.88671875 C222.26120875 98.23868034 220.8154085 98.5907333 219.36962891 98.94287109 C218.27258636 99.20750153 218.27258636 99.20750153 217.15338135 99.47747803 C213.91374372 100.2635821 210.68208976 101.08111015 207.44921875 101.89453125 C193.35518595 105.39272949 179.26009023 108.62629026 165 111.375 C151.36400142 114.00433491 137.86457872 117.07650711 124.375 120.375 C123.4576709 120.59822937 122.5403418 120.82145874 121.59521484 121.05145264 C119.00751878 121.68292372 116.4213966 122.3203755 113.8359375 122.9609375 C112.6651918 123.24795532 112.6651918 123.24795532 111.47079468 123.54077148 C107.94554894 124.19072413 107.94554894 124.19072413 105 126 C103.1521736 126.40508842 101.29591503 126.77165514 99.4375 127.125 C72.96650537 131.53688781 72.96650537 131.53688781 50 143 C46.13962709 144.58956532 42.25161401 145.91894491 38.27734375 147.19921875 C37.61565186 147.41344482 36.95395996 147.6276709 36.2722168 147.84838867 C34.94396817 148.27638524 33.61343067 148.69735464 32.28051758 149.1105957 C28.64556417 150.28029845 25.97445196 151.63655284 23 154 C21.00116131 154.34022786 19.00109278 154.67329097 17 155 C15.31503702 155.96885372 13.64821244 156.96986723 12 158 C11.12472656 158.27972656 10.24945313 158.55945313 9.34765625 158.84765625 C5.33830387 160.22777171 1.70006428 162.06075119 -2.0625 164 C-6.32707212 166.1857417 -10.53869187 168.24017603 -15 170 C-16.36790159 170.72464653 -17.72230028 171.47531808 -19.0625 172.25 C-22.60344774 174.26417094 -26.19711588 176.06180808 -29.875 177.8125 C-35.01434064 180.36270312 -39.50413698 183.33194006 -44.0703125 186.79296875 C-46.21027053 188.40507046 -48.35554668 189.96159039 -50.5546875 191.48828125 C-61.21605412 198.34530444 -61.21605412 198.34530444 -69 208 C-68.28038086 208.24492187 -67.56076172 208.48984375 -66.81933594 208.7421875 C-63.68344773 210.14122595 -61.547232 211.9585598 -58.890625 214.125 C-50.58947202 219.75410803 -42.40306715 218.67079061 -32.75 218 C-31.02233111 217.91145981 -29.29445905 217.82679502 -27.56640625 217.74609375 C-23.37392588 217.54196818 -19.18767774 217.28572641 -15 217 C-15 217.33 -15 217.66 -15 218 C-18.93260024 218.28620104 -22.86529958 218.5709953 -26.7980957 218.85449219 C-28.7931854 218.99860484 -30.78819476 219.14382825 -32.78320312 219.2890625 C-34.66362305 219.42441406 -34.66362305 219.42441406 -36.58203125 219.5625 C-37.73936768 219.64628906 -38.8967041 219.73007812 -40.08911133 219.81640625 C-42.05644859 219.94048892 -44.02875359 220 -46 220 C-44.47306036 223.05387928 -41.96382675 223.65962073 -38.9375 225.125 C-37.83277344 225.66382813 -36.72804688 226.20265625 -35.58984375 226.7578125 C-34.73519531 227.16773438 -33.88054687 227.57765625 -33 228 C-33 228.66 -33 229.32 -33 230 C-65.10380944 220.69454799 -95.16965409 191.39878585 -113 164 C-113.38542969 163.40815918 -113.77085938 162.81631836 -114.16796875 162.20654297 C-129 139.30246394 -129 139.30246394 -129 134 C-128.34 134 -127.68 134 -127 134 C-127.05220703 132.85337891 -127.05220703 132.85337891 -127.10546875 131.68359375 C-127.867172 101.54190808 -112.80744004 76.86477554 -92.7734375 55.76953125 C-88.46111772 51.46328516 -83.80715204 47.73389751 -79 44 C-77.94049904 43.13159473 -76.88328982 42.26038756 -75.828125 41.38671875 C-58.21567911 26.94446161 -37.04097173 14.60782312 -15.99609375 5.859375 C-12.44020397 4.32846355 -8.95194319 2.64484461 -5.453125 0.98828125 C-3 0 -3 0 0 0 Z " fill="#4238AF" transform="translate(181,282)"/>
<path d="M0 0 C11.13321329 9.7246785 18.83140555 20.1840779 24.25390625 33.96875 C24.57488281 34.76023438 24.89585937 35.55171875 25.2265625 36.3671875 C30.93765355 53.20826528 27.54509375 72.68134253 20.00390625 88.28125 C16.73243058 94.46845452 12.94608629 99.78836626 8.25390625 104.96875 C7.61582031 105.67644531 6.97773438 106.38414062 6.3203125 107.11328125 C-9.85057038 124.13012581 -32.67585457 132.6654038 -55.85693359 133.50708008 C-70.89532906 133.64480451 -85.21568407 130.59826305 -98.74609375 123.96875 C-100.12667969 123.30746094 -100.12667969 123.30746094 -101.53515625 122.6328125 C-121.16515601 112.62427741 -134.30387474 96.02221133 -141.58203125 75.5703125 C-147.13149556 58.4004934 -144.24854981 39.11737879 -136.18359375 23.28125 C-132.12590964 15.80401662 -126.80655884 9.87680695 -120.74609375 3.96875 C-120.1015625 3.31519531 -119.45703125 2.66164062 -118.79296875 1.98828125 C-87.03499834 -28.18179064 -33.18422662 -27.06978057 0 0 Z " fill="#125559" transform="translate(469.74609375,205.03125)"/>
<path d="M0 0 C2.91184288 1.46696557 5.66973306 3.15417989 8.4375 4.875 C9.23373779 5.36750244 10.02997559 5.86000488 10.8503418 6.36743164 C18.33436766 11.07782013 25.27740546 16.26333299 32 22 C32.55526367 22.47018555 33.11052734 22.94037109 33.68261719 23.42480469 C46.55869279 34.44971116 56.32709071 47.50775183 65 62 C65.41620605 62.67466309 65.83241211 63.34932617 66.26123047 64.04443359 C72.22513839 73.80620835 75.62663908 81.27518554 74 93 C73.84917969 94.27488281 73.69835937 95.54976563 73.54296875 96.86328125 C68.88483976 130.11296533 42.83568777 157.20847585 17.30859375 176.875 C8.20406303 183.7414645 -1.33178362 189.96216051 -11 196 C-11.90105469 196.56605957 -11.90105469 196.56605957 -12.8203125 197.14355469 C-22.57405683 203.22851048 -22.57405683 203.22851048 -29 204 C-29.309375 202.783125 -29.61875 201.56625 -29.9375 200.3125 C-33.12972746 190.62838689 -40.70341001 181.00472639 -48 174 C-50.54555306 171.46319455 -53.08136671 168.91753538 -55.60546875 166.359375 C-56.45753906 165.49828125 -57.30960938 164.6371875 -58.1875 163.75 C-59.47720703 162.44289062 -59.47720703 162.44289062 -60.79296875 161.109375 C-62.81431066 158.97005762 -62.81431066 158.97005762 -65 158 C-65 157.34 -65 156.68 -65 156 C-65.99 155.67 -66.98 155.34 -68 155 C-68 154.34 -68 153.68 -68 153 C-68.5875708 152.72470459 -69.1751416 152.44940918 -69.78051758 152.16577148 C-71.90827372 151.04817875 -73.6352891 149.84138448 -75.51171875 148.34765625 C-76.51150757 147.56213379 -76.51150757 147.56213379 -77.53149414 146.76074219 C-78.24297607 146.20032227 -78.95445801 145.63990234 -79.6875 145.0625 C-94.7350221 133.40297927 -110.9122615 123.39950279 -128 115 C-128 114.67 -128 114.34 -128 114 C-127.21963379 113.77650879 -126.43926758 113.55301758 -125.63525391 113.32275391 C-117.29446574 110.85586503 -109.35015095 107.83610397 -101.375 104.375 C-100.76982544 104.11366272 -100.16465088 103.85232544 -99.5411377 103.58306885 C-79.0638425 94.72023322 -59.130012 84.44461408 -42 70 C-41.07445312 69.26910156 -40.14890625 68.53820312 -39.1953125 67.78515625 C-33.48543898 63.25903699 -28.60902821 58.62810983 -24 53 C-23.46632813 52.41476563 -22.93265625 51.82953125 -22.3828125 51.2265625 C-18.65993095 47.13324498 -16.25647473 43.0322219 -14 38 C-13.49146484 36.98486328 -13.49146484 36.98486328 -12.97265625 35.94921875 C-7.32018954 24.28167426 -6.5596833 12.70395231 -7 0 C-4.16131903 -1.41934048 -3.06002397 -0.91430057 0 0 Z " fill="#1DADAC" transform="translate(674,70)"/>
<path d="M0 0 C0.66 0 1.32 0 2 0 C2.55945313 1.18851562 3.11890625 2.37703125 3.6953125 3.6015625 C8.29948904 13.18764399 13.27248121 22.32440557 19.0625 31.25 C44.8804553 71.06007006 44.8804553 71.06007006 40.3515625 94.33203125 C37.20753009 104.79870324 31.87321342 111.53464896 22.33203125 116.80859375 C21.56246094 117.20175781 20.79289063 117.59492188 20 118 C19.36449219 118.36222656 18.72898437 118.72445312 18.07421875 119.09765625 C8.71712368 123.16825693 -5.44368344 122.18543885 -15 119 C-24.72810368 114.65879413 -31.36287775 108.63739263 -36 99 C-37.74021142 93.99101307 -38.32419681 89.39360787 -38.25 84.125 C-38.23876099 83.06684082 -38.23876099 83.06684082 -38.22729492 81.98730469 C-37.83373086 62.89395106 -26.83467555 46.2215473 -16.60449219 30.7355957 C-12.94159247 25.09247066 -9.71830218 19.21758021 -6.5 13.3125 C-5.97108154 12.34296387 -5.44216309 11.37342773 -4.8972168 10.37451172 C-2.13918963 5.32448752 -2.13918963 5.32448752 0 0 Z " fill="#FEFEFD" transform="translate(569,355)"/>
<path d="M0 0 C5.90948412 3.40562803 10.67166049 8.30008434 13.08203125 14.80078125 C14.7284246 22.12254678 14.65513411 28.91399314 10.875 35.5 C5.8180413 42.74596629 0.02349125 45.70852919 -8.4375 47.9375 C-15.43772715 48.96694517 -20.52768498 47.74045271 -26.4375 43.9375 C-27.324375 43.380625 -28.21125 42.82375 -29.125 42.25 C-34.77697482 36.59802518 -36.78050643 31.47028828 -37.0625 23.4375 C-36.77677287 15.72286755 -35.05693972 10.75053766 -29.7578125 5.16796875 C-28.05633274 3.61395057 -26.3202215 2.26347993 -24.4375 0.9375 C-23.138125 0.009375 -23.138125 0.009375 -21.8125 -0.9375 C-14.57248116 -3.35083961 -6.96605098 -3.19321247 0 0 Z " fill="#FBFCFC" transform="translate(450.4375,208.0625)"/>
<path d="M0 0 C2 1 2 1 3.125 3.375 C4 6 4 6 4 9 C3.01 9 2.02 9 1 9 C1.04640625 9.75023437 1.0928125 10.50046875 1.140625 11.2734375 C1.37414112 17.89528748 0.77368345 22.8200356 -2.02734375 28.84375 C-2.95303098 30.8958759 -3.48978592 32.81535609 -4 35 C-4.6492959 36.34187818 -5.31731862 37.67479497 -6 39 C-6.44666016 40.17369141 -6.44666016 40.17369141 -6.90234375 41.37109375 C-8.68268837 45.63505079 -11.36092189 49.22570869 -14 53 C-14.61230469 53.88300781 -15.22460938 54.76601562 -15.85546875 55.67578125 C-22.93108408 65.66073142 -31.16858518 74.25855875 -39.75 82.9375 C-40.483396 83.68402832 -41.21679199 84.43055664 -41.97241211 85.19970703 C-45.45157958 88.68404178 -48.61478844 91.66934127 -53 94 C-53.66 94.66 -54.32 95.32 -55 96 C-56.25733954 96.99643465 -57.52994182 97.97374213 -58.8125 98.9375 C-59.47894531 99.44152344 -60.14539063 99.94554687 -60.83203125 100.46484375 C-63.15613059 102.11055734 -65.55180048 103.54548146 -68 105 C-70.23327161 106.43158436 -72.46180987 107.86927189 -74.6875 109.3125 C-83.34597789 114.8852498 -83.34597789 114.8852498 -87.5625 117.5 C-88.67818359 118.19609375 -88.67818359 118.19609375 -89.81640625 118.90625 C-92.20557387 120.10297081 -94.3688727 120.59307697 -97 121 C-94.41409648 118.03698555 -91.44017574 116.48301944 -88 114.625 C-74.46807757 107.10244433 -61.72599519 98.09500025 -50 88 C-48.87240594 87.06612168 -47.74341195 86.133932 -46.61328125 85.203125 C-21.30458095 64.19803991 -3.49051613 38.22961141 -0.375 4.8125 C-0.24490466 3.20873852 -0.11794705 1.60470065 0 0 Z " fill="#F0DC1C" transform="translate(748,152)"/>
<path d="M0 0 C7.8619356 0.770778 15.44548219 2.59064474 23.09375 4.53125 C29.66399493 6.146884 36.27964312 7.25329368 43 8 C43 8.66 43 9.32 43 10 C43.87640137 9.8249292 44.75280273 9.6498584 45.65576172 9.46948242 C48.85149147 9.02084844 51.32481002 9.08003989 54.5078125 9.48828125 C55.56444092 9.61678467 56.62106934 9.74528809 57.7097168 9.87768555 C58.83676025 10.02117432 59.96380371 10.16466309 61.125 10.3125 C75.39497235 12.024818 89.6580498 13.08942594 104 14 C104 14.33 104 14.66 104 15 C74.02356518 15.84716011 45.31636025 12.47905399 16 6 C14.92556641 5.7642627 13.85113281 5.52852539 12.74414062 5.28564453 C11.67873047 5.0379834 10.61332031 4.79032227 9.515625 4.53515625 C8.55430664 4.31351807 7.59298828 4.09187988 6.60253906 3.86352539 C3.89908481 2.96651623 2.15961885 1.83185369 0 0 Z " fill="#C544B1" transform="translate(197,529)"/>
<path d="M0 0 C0.66 0.33 1.32 0.66 2 1 C1.43410156 1.55429687 0.86820313 2.10859375 0.28515625 2.6796875 C-0.44832031 3.40414063 -1.18179688 4.12859375 -1.9375 4.875 C-2.66839844 5.59429687 -3.39929688 6.31359375 -4.15234375 7.0546875 C-6.05667999 8.87027192 -6.05667999 8.87027192 -7 11 C-6.28038086 11.24492187 -5.56076172 11.48984375 -4.81933594 11.7421875 C-1.68344773 13.14122595 0.452768 14.9585598 3.109375 17.125 C11.41052798 22.75410803 19.59693285 21.67079061 29.25 21 C30.97766889 20.91145981 32.70554095 20.82679502 34.43359375 20.74609375 C38.62607412 20.54196818 42.81232226 20.28572641 47 20 C47 20.33 47 20.66 47 21 C43.06739976 21.28620104 39.13470042 21.5709953 35.2019043 21.85449219 C33.2068146 21.99860484 31.21180524 22.14382825 29.21679688 22.2890625 C27.96318359 22.37929688 26.70957031 22.46953125 25.41796875 22.5625 C24.26063232 22.64628906 23.1032959 22.73007812 21.91088867 22.81640625 C19.94355141 22.94048892 17.97124641 23 16 23 C17.52693964 26.05387928 20.03617325 26.65962073 23.0625 28.125 C24.16722656 28.66382813 25.27195313 29.20265625 26.41015625 29.7578125 C27.26480469 30.16773438 28.11945313 30.57765625 29 31 C29 31.66 29 32.32 29 33 C23.43708526 31.40415574 18.60520026 28.83752549 13.5625 26.0625 C12.68883789 25.58321045 11.81517578 25.1039209 10.91503906 24.61010742 C2.77352475 20.04554262 -4.66157707 14.74843129 -12 9 C-11.42765625 8.74476563 -10.8553125 8.48953125 -10.265625 8.2265625 C-7.75826267 6.86912841 -5.8669544 5.28025896 -3.75 3.375 C-2.69039062 2.42753906 -2.69039062 2.42753906 -1.609375 1.4609375 C-1.07828125 0.97882813 -0.5471875 0.49671875 0 0 Z " fill="#B52DC3" transform="translate(119,479)"/>
<path d="M0 0 C-28.93263641 15.26964975 -28.93263641 15.26964975 -43 21 C-43 20.01 -43 19.02 -43 18 C-42.49364014 17.77973145 -41.98728027 17.55946289 -41.46557617 17.33251953 C-30.75655692 12.65130986 -20.27083526 7.77739546 -10.09448242 2.01220703 C-9.35174072 1.60341309 -8.60899902 1.19461914 -7.84375 0.7734375 C-7.19599609 0.40653809 -6.54824219 0.03963867 -5.88085938 -0.33837891 C-3.55211181 -1.15755153 -2.29609638 -0.79700793 0 0 Z " fill="#DC51A7" transform="translate(491,645)"/>
<path d="M0 0 C20.53655813 2.13656738 40.99928003 5.88553018 61 11 C61 11.33 61 11.66 61 12 C58.89551062 11.85890014 56.7914123 11.71195825 54.6875 11.5625 C53.51574219 11.48128906 52.34398437 11.40007813 51.13671875 11.31640625 C48 11 48 11 45 10 C38.07496595 8.21289444 31.31281817 6.81252545 24.18359375 6.2421875 C21.01161937 5.89037639 18.06373051 4.88276981 15 4 C11.60256453 3.47323416 8.20277238 3.00196836 4.79296875 2.5625 C2 2 2 2 0 0 Z " fill="#81EDDA" transform="translate(541,32)"/>
<path d="M0 0 C0.33 0 0.66 0 1 0 C1.54268356 16.56189816 1.54268356 16.56189816 -2 24 C-2.56875382 25.70626145 -3.13063966 27.41482001 -3.6875 29.125 C-5.38919224 33.80465367 -7.51276149 38.10206981 -9.9375 42.4375 C-10.26129639 43.02869629 -10.58509277 43.61989258 -10.91870117 44.22900391 C-13.10114692 48.01104318 -15.44496662 50.48365463 -19 53 C-17.57316028 50.00729514 -15.93069633 47.17792307 -14.2331543 44.33178711 C-6.06902214 30.51776289 -1.35799046 16.02428738 0 0 Z " fill="#E8B120" transform="translate(651,299)"/>
<path d="M0 0 C12.99924197 -0.31330465 25.91209287 0.64549189 38.875 1.5 C41.12367163 1.64493961 43.37236942 1.78947408 45.62109375 1.93359375 C51.0810394 2.28439319 56.54064123 2.64018849 62 3 C62 3.33 62 3.66 62 4 C59.39619004 4.19476139 56.79224467 4.38108614 54.1875 4.5625 C53.44951172 4.61857422 52.71152344 4.67464844 51.95117188 4.73242188 C48.63211484 4.95769724 46.18767436 5.06255812 43 4 C40.89834138 3.86094073 38.79300859 3.77478562 36.6875 3.71875 C35.44742188 3.68136719 34.20734375 3.64398437 32.9296875 3.60546875 C31.63289063 3.57066406 30.33609375 3.53585938 29 3.5 C26.43738558 3.43122208 23.8748732 3.3584941 21.3125 3.28125 C20.17425781 3.25095703 19.03601563 3.22066406 17.86328125 3.18945312 C15 3 15 3 12 2 C9.94106379 1.77674186 7.87766347 1.59294241 5.8125 1.4375 C4.72582031 1.35371094 3.63914062 1.26992188 2.51953125 1.18359375 C1.68808594 1.12300781 0.85664063 1.06242187 0 1 C0 0.67 0 0.34 0 0 Z " fill="#95E8DC" transform="translate(430,23)"/>
<path d="M0 0 C0.33 0 0.66 0 1 0 C1.3690205 15.74487472 1.3690205 15.74487472 -1 23 C-1.66 23 -2.32 23 -3 23 C-3.0825 24.258125 -3.165 25.51625 -3.25 26.8125 C-4.11433749 34.50632107 -6.13760514 41.72753167 -12 47 C-10.64967964 42.28572364 -9.23544891 37.6095011 -7.5703125 32.99609375 C-3.6816915 22.0932809 -1.45061678 11.47768713 0 0 Z " fill="#E26AB0" transform="translate(433,575)"/>
<path d="M0 0 C0 3 0 3 -2 6 C-3.63790712 7.04644066 -5.31008021 8.0398183 -7 9 C-9.00305884 10.32873363 -11.00258917 11.66279106 -13 13 C-17.64829472 16.02910201 -22.31723488 19.02450677 -27 22 C-27.97582031 22.62132812 -28.95164062 23.24265625 -29.95703125 23.8828125 C-31.24673828 24.68332031 -31.24673828 24.68332031 -32.5625 25.5 C-33.30628906 25.9640625 -34.05007813 26.428125 -34.81640625 26.90625 C-37.20557387 28.10297081 -39.3688727 28.59307697 -42 29 C-39.41409648 26.03698555 -36.44017574 24.48301944 -33 22.625 C-26.77534961 19.17383295 -20.87026418 15.33408602 -15 11.3125 C-14.19949219 10.76609863 -13.39898438 10.21969727 -12.57421875 9.65673828 C-8.19185877 6.62867484 -4.03134077 3.4821998 0 0 Z " fill="#EED21D" transform="translate(693,244)"/>
<path d="M0 0 C0.33 0 0.66 0 1 0 C1.58125584 4.03284883 2.15025863 8.06723816 2.70898438 12.10327148 C2.89980766 13.46993122 3.09371094 14.83616522 3.29101562 16.2019043 C4.58441014 25.17317902 5.27888234 33.92567224 5 43 C4.34 42.34 3.68 41.68 3 41 C3.0234375 38.8359375 3.0234375 38.8359375 3.375 36.375 C3.48585938 35.55773437 3.59671875 34.74046875 3.7109375 33.8984375 C3.80632813 33.27195313 3.90171875 32.64546875 4 32 C2.515 32.495 2.515 32.495 1 33 C1.08378906 32.14535156 1.16757812 31.29070312 1.25390625 30.41015625 C1.35574219 29.30542969 1.45757813 28.20070312 1.5625 27.0625 C1.66691406 25.96035156 1.77132812 24.85820312 1.87890625 23.72265625 C1.91886719 22.82417969 1.95882812 21.92570312 2 21 C1.67 20.67 1.34 20.34 1 20 C0.67553663 16.89957227 0.48665559 13.7979275 0.28125 10.6875 C0.29392201 8.08403248 0.29392201 8.08403248 -1 7 C-1.125 4 -1.125 4 -1 1 C-0.67 0.67 -0.34 0.34 0 0 Z " fill="#FDE550" transform="translate(767,216)"/>
<path d="M0 0 C0.66 0.33 1.32 0.66 2 1 C-12.24642289 16.55643879 -12.24642289 16.55643879 -17 21 C-17.66 21 -18.32 21 -19 21 C-19.66 22.32 -20.32 23.64 -21 25 C-21.66 24.34 -22.32 23.68 -23 23 C-15.74913262 14.82136415 -8.17863585 7.25086738 0 0 Z " fill="#579894" transform="translate(109,89)"/>
<path d="M0 0 C1.1446875 0.01353516 1.1446875 0.01353516 2.3125 0.02734375 C2.869375 0.03894531 3.42625 0.05054687 4 0.0625 C4 0.3925 4 0.7225 4 1.0625 C2.2984375 1.2790625 2.2984375 1.2790625 0.5625 1.5 C-2.80777201 1.67421478 -2.80777201 1.67421478 -4 3.0625 C-10.32462984 4.15515358 -16.87934866 5.26187452 -23.3125 5.0625 C-28.54893703 5.0625 -34.26020962 5.69260481 -39 8.0625 C-41.00800456 7.78137936 -43.01014051 7.45182033 -45 7.0625 C-45 6.7325 -45 6.4025 -45 6.0625 C-40.58944432 5.36712486 -36.17862969 4.67342201 -31.76757812 3.98120117 C-30.27011178 3.74597255 -28.77271445 3.51030407 -27.27539062 3.27416992 C-25.11086168 2.93289586 -22.94608125 2.59325674 -20.78125 2.25390625 C-18.8331543 1.94755249 -18.8331543 1.94755249 -16.84570312 1.63500977 C-5.30599643 -0.08290619 -5.30599643 -0.08290619 0 0 Z " fill="#5AB8AD" transform="translate(281,24.9375)"/>
<path d="M0 0 C9.49209929 -0.30681533 18.72135467 0.86776311 28.125 2 C29.7655629 2.19323626 31.40618758 2.38594886 33.046875 2.578125 C37.03198785 3.04604874 41.01619769 3.52105206 45 4 C45 4.33 45 4.66 45 5 C42.39576408 5.02697137 39.79180756 5.04682489 37.1875 5.0625 C36.44951172 5.07087891 35.71152344 5.07925781 34.95117188 5.08789062 C31.70077932 5.10259828 29.10595105 5.03531702 26 4 C22.3279325 3.74028599 18.66151273 3.55675791 14.984375 3.39453125 C9.10139297 3.10139297 9.10139297 3.10139297 8 2 C6.65252916 1.76924918 5.29622435 1.58846937 3.9375 1.4375 C2.638125 1.293125 1.33875 1.14875 0 1 C0 0.67 0 0.34 0 0 Z " fill="#83EAD9" transform="translate(492,27)"/>
<path d="M0 0 C1.35416667 0.54166667 2.70833333 1.08333333 4.0625 1.625 C4.97515625 1.98851562 5.8878125 2.35203125 6.828125 2.7265625 C9.07199138 3.62742511 11.31115014 4.54005523 13.546875 5.4609375 C21.59568839 8.76139358 29.62856448 11.60009437 38 14 C38 14.33 38 14.66 38 15 C31.52581019 15.52254063 26.65606925 13.69907076 20.6875 11.3125 C19.80126953 10.97283203 18.91503906 10.63316406 18.00195312 10.28320312 C11.81410515 7.86854327 5.8914571 5.0636212 0 2 C0 1.34 0 0.68 0 0 Z " fill="#BB49B7" transform="translate(149,511)"/>
<path d="M0 0 C8.96591576 -0.14963976 17.81272266 0.30964664 26.75 1 C28.67199219 1.14308594 28.67199219 1.14308594 30.6328125 1.2890625 C33.75552705 1.5221009 36.87788015 1.75914709 40 2 C40 2.33 40 2.66 40 3 C35.89234358 3.02496472 31.78471736 3.04298366 27.67700195 3.05493164 C26.28343943 3.05991957 24.88988202 3.06671231 23.49633789 3.07543945 C7.7703372 3.17136411 7.7703372 3.17136411 1 2 C0.67 1.34 0.34 0.68 0 0 Z " fill="#C83EA3" transform="translate(261,541)"/>
<path d="M0 0 C0 3.7185733 -0.7351394 4.11990563 -3.2890625 6.6875 C-3.98386719 7.38617188 -4.67867187 8.08484375 -5.39453125 8.8046875 C-6.13058594 9.52914062 -6.86664062 10.25359375 -7.625 11 C-8.33785156 11.72445312 -9.05070313 12.44890625 -9.78515625 13.1953125 C-13.62247929 17.01151266 -16.96242303 19.96589952 -22 22 C-20.48947977 18.32329416 -18.3511385 16.28125538 -15.375 13.6875 C-14.48554687 12.90632812 -13.59609375 12.12515625 -12.6796875 11.3203125 C-11.79539062 10.55460938 -10.91109375 9.78890625 -10 9 C-8.49969331 7.68785059 -6.99965966 6.37538886 -5.5 5.0625 C-4.55640625 4.24458984 -4.55640625 4.24458984 -3.59375 3.41015625 C-2.3569701 2.31584855 -1.16771869 1.16771869 0 0 Z " fill="#F5DC1B" transform="translate(716,224)"/>
<path d="M0 0 C0 0.66 0 1.32 0 2 C-8.53957675 5.44660395 -15.81283582 6.53344824 -25 6 C-25.33 5.01 -25.66 4.02 -26 3 C-25.17757813 3.03480469 -24.35515625 3.06960938 -23.5078125 3.10546875 C-16.85768615 3.26673047 -11.3030923 2.90941518 -5.0234375 0.65625 C-3 0 -3 0 0 0 Z " fill="#C643AD" transform="translate(440,668)"/>
<path d="M0 0 C1 2 1 2 0.0625 4.9375 C-1.72337399 10.66919018 -1.89792256 17.30623231 0 23 C-1.9375 22.5 -1.9375 22.5 -4 21 C-5.91318236 14.1125435 -4.41302124 7.64378094 -2 1 C-1.34 0.67 -0.68 0.34 0 0 Z " fill="#C84AB4" transform="translate(412,647)"/>
<path d="M0 0 C2 1 2 1 3.125 3.375 C4 6 4 6 4 9 C3.01 9 2.02 9 1 9 C1.02320313 9.81984375 1.04640625 10.6396875 1.0703125 11.484375 C1.08835937 12.56203125 1.10640625 13.6396875 1.125 14.75 C1.14820313 15.81734375 1.17140625 16.8846875 1.1953125 17.984375 C1.00487687 20.92470106 0.52670104 22.52361878 -1 25 C-1.66 25 -2.32 25 -3 25 C-2.01 16.75 -1.02 8.5 0 0 Z " fill="#EBD721" transform="translate(748,152)"/>
<path d="M0 0 C9.24 0 18.48 0 28 0 C24.45429137 1.77285431 21.56675327 2.71229813 17.75 3.625 C16.13351562 4.01558594 16.13351562 4.01558594 14.484375 4.4140625 C13.25460937 4.70410156 13.25460937 4.70410156 12 5 C12.33 3.68 12.66 2.36 13 1 C8.71 1 4.42 1 0 1 C0 0.67 0 0.34 0 0 Z " fill="#3E5FB4" transform="translate(388,376)"/>
<path d="M0 0 C0 3 0 3 -1.74414062 5.0847168 C-2.54013672 5.86500244 -3.33613281 6.64528809 -4.15625 7.44921875 C-5.01347656 8.29677734 -5.87070313 9.14433594 -6.75390625 10.01757812 C-7.66011719 10.89865234 -8.56632812 11.77972656 -9.5 12.6875 C-10.40621094 13.58017578 -11.31242187 14.47285156 -12.24609375 15.39257812 C-14.49085168 17.60189251 -16.74229998 19.80392533 -19 22 C-19.66 21.67 -20.32 21.34 -21 21 C-7.04255319 5.65957447 -7.04255319 5.65957447 0 0 Z " fill="#3C3FA5" transform="translate(99,328)"/>
<path d="M0 0 C-3.85634799 3.18612708 -8.21975152 5.37030973 -12.625 7.6875 C-13.40101563 8.10322266 -14.17703125 8.51894531 -14.9765625 8.94726562 C-15.7190625 9.33978516 -16.4615625 9.73230469 -17.2265625 10.13671875 C-17.90283691 10.49467529 -18.57911133 10.85263184 -19.27587891 11.22143555 C-21 12 -21 12 -23 12 C-23 11.34 -23 10.68 -23 10 C-20.1140277 8.31580695 -17.2147882 6.65589303 -14.3125 5 C-13.08756836 4.28457031 -13.08756836 4.28457031 -11.83789062 3.5546875 C-10.64389648 2.87792969 -10.64389648 2.87792969 -9.42578125 2.1875 C-8.69786377 1.76855469 -7.96994629 1.34960938 -7.2199707 0.91796875 C-4.66627081 -0.13799865 -2.73738614 -0.16832505 0 0 Z " fill="#E153A0" transform="translate(514,632)"/>
<path d="M0 0 C0.33 0.99 0.66 1.98 1 3 C-0.46341547 5.2906932 -1.93273496 7.32806099 -3.625 9.4375 C-4.06457031 10.01048828 -4.50414062 10.58347656 -4.95703125 11.17382812 C-7.66393026 14.62294138 -10.44068975 17.38512767 -14 20 C-12.65905861 16.06703274 -10.96926145 13.57312391 -8.125 10.5625 C-5.02534269 7.19232714 -2.39662141 3.89450979 0 0 Z " fill="#E6DA22" transform="translate(731,205)"/>
<path d="M0 0 C2.35171131 0.59861742 4.6859378 1.26924352 7 2 C7.33 2.66 7.66 3.32 8 4 C9.98888201 5.10144685 12.0162536 6.13418595 14.0625 7.125 C15.71958984 7.93324219 15.71958984 7.93324219 17.41015625 8.7578125 C18.69212891 9.37269531 18.69212891 9.37269531 20 10 C20 10.66 20 11.32 20 12 C15.08558588 10.56347895 10.99761642 8.45840385 6.625 5.875 C5.98433594 5.50246094 5.34367188 5.12992187 4.68359375 4.74609375 C3.11951523 3.83565998 1.55934466 2.91851809 0 2 C0 1.34 0 0.68 0 0 Z " fill="#B23FB4" transform="translate(128,500)"/>
<path d="M0 0 C0 0.99 0 1.98 0 3 C-2.37163128 4.70041488 -4.67040809 6.17328187 -7.1875 7.625 C-7.86103516 8.03234375 -8.53457031 8.4396875 -9.22851562 8.859375 C-12.78887511 10.95738196 -15.81957128 12.52919444 -20 13 C-17.24557901 9.76963126 -13.6605933 7.95907765 -10 5.9375 C-6.60265263 4.04041566 -3.24072455 2.16048304 0 0 Z " fill="#E7CA1F" transform="translate(671,260)"/>
<path d="M0 0 C0.66 0 1.32 0 2 0 C0.89881448 3.30355656 0.33948243 3.75751255 -2.37890625 5.69921875 C-3.05244141 6.18583984 -3.72597656 6.67246094 -4.41992188 7.17382812 C-5.12697266 7.67333984 -5.83402344 8.17285156 -6.5625 8.6875 C-7.62887695 9.45416992 -7.62887695 9.45416992 -8.71679688 10.23632812 C-10.47309098 11.49755946 -12.23593636 12.74965887 -14 14 C-14.33 13.01 -14.66 12.02 -15 11 C-13.68 10.67 -12.36 10.34 -11 10 C-11 9.34 -11 8.68 -11 8 C-9.1015625 6.5625 -9.1015625 6.5625 -6.625 5 C-4.15047838 3.42887516 -2.07616959 2.07616959 0 0 Z " fill="#24959F" transform="translate(694,241)"/>
<path d="M0 0 C0.33 0 0.66 0 1 0 C3.46254726 6.61809577 3.18935472 13.00439516 3 20 C2.34 19.34 1.68 18.68 1 18 C1.0234375 15.8359375 1.0234375 15.8359375 1.375 13.375 C1.48585938 12.55773437 1.59671875 11.74046875 1.7109375 10.8984375 C1.80632813 10.27195313 1.90171875 9.64546875 2 9 C1.01 9.33 0.02 9.66 -1 10 C-0.67 6.7 -0.34 3.4 0 0 Z " fill="#FBDB35" transform="translate(769,239)"/>
<path d="M0 0 C0.66 0.33 1.32 0.66 2 1 C0.88121617 2.17262904 -0.24523051 3.33795138 -1.375 4.5 C-2.00148438 5.1496875 -2.62796875 5.799375 -3.2734375 6.46875 C-5 8 -5 8 -7 8 C-7.66 9.32 -8.32 10.64 -9 12 C-9.66 11.34 -10.32 10.68 -11 10 C-4.68882603 2.08392268 -4.68882603 2.08392268 0 0 Z " fill="#33827E" transform="translate(97,102)"/>
<path d="M0 0 C0.33 0.99 0.66 1.98 1 3 C-5.93 5.97 -5.93 5.97 -13 9 C-13 8.01 -13 7.02 -13 6 C-8.71 4.02 -4.42 2.04 0 0 Z " fill="#D542A9" transform="translate(461,657)"/>
<path d="M0 0 C-3.26306953 2.88656151 -5.77092753 3.30953919 -10 4 C-12.79897943 5.46111016 -12.79897943 5.46111016 -15 7 C-15.33 6.34 -15.66 5.68 -16 5 C-15.360625 4.71125 -14.72125 4.4225 -14.0625 4.125 C-11.84793921 3.17176549 -11.84793921 3.17176549 -11 1 C-9.00390625 0.33203125 -9.00390625 0.33203125 -6.5625 -0.1875 C-5.75941406 -0.36667969 -4.95632812 -0.54585938 -4.12890625 -0.73046875 C-2 -1 -2 -1 0 0 Z " fill="#992EAC" transform="translate(208,433)"/>
<path d="M0 0 C1.03274898 2.68514734 1.07566569 3.7921588 0.07421875 6.54296875 C-0.38339844 7.41566406 -0.84101563 8.28835938 -1.3125 9.1875 C-1.76238281 10.06792969 -2.21226562 10.94835937 -2.67578125 11.85546875 C-4 14 -4 14 -6 15 C-3.10933941 4.44191344 -3.10933941 4.44191344 0 0 Z " fill="#DE5DB1" transform="translate(427,607)"/>
<path d="M0 0 C1.32 0.33 2.64 0.66 4 1 C2.44210317 2.13136586 0.87846143 3.25482321 -0.6875 4.375 C-1.55761719 5.00148438 -2.42773438 5.62796875 -3.32421875 6.2734375 C-5.83596952 7.89415843 -8.19299187 8.99858088 -11 10 C-10.67 9.01 -10.34 8.02 -10 7 C-9.34 7 -8.68 7 -8 7 C-7.67 6.34 -7.34 5.68 -7 5 C-2.5 2 -2.5 2 0 2 C0 1.34 0 0.68 0 0 Z " fill="#208C9E" transform="translate(671,257)"/>
<path d="M0 0 C0.58652344 0.20109375 1.17304687 0.4021875 1.77734375 0.609375 C-0.1751081 1.80652055 -2.13480622 2.99185574 -4.09765625 4.171875 C-5.18820312 4.83316406 -6.27875 5.49445312 -7.40234375 6.17578125 C-8.79839844 6.88541016 -8.79839844 6.88541016 -10.22265625 7.609375 C-10.88265625 7.279375 -11.54265625 6.949375 -12.22265625 6.609375 C-9.36188303 3.24375944 -4.54936583 -0.79953705 0 0 Z " fill="#E85C9D" transform="translate(526.22265625,624.390625)"/>
<path d="M0 0 C5.23272633 1.63958758 10.15196636 3.38952035 15 6 C11.01508155 7.32830615 9.59951452 6.23204404 5.8125 4.5625 C4.72582031 4.08941406 3.63914062 3.61632813 2.51953125 3.12890625 C1.68808594 2.75636719 0.85664062 2.38382813 0 2 C0 1.34 0 0.68 0 0 Z " fill="#6CECD5" transform="translate(651,60)"/>
<path d="M0 0 C-1.32 0.33 -2.64 0.66 -4 1 C-4 1.66 -4 2.32 -4 3 C-7.85756507 5.15305957 -10.55129785 6.39253254 -15 6 C-11.57875892 3.02500775 -4.44240633 -2.22120316 0 0 Z " fill="#55A79F" transform="translate(180,49)"/>
<path d="M0 0 C-3.01635451 1.67653193 -5.73461672 2.46032745 -9.125 3.0625 C-12.67791258 3.68273802 -12.67791258 3.68273802 -16 5 C-18.00800456 4.71887936 -20.01014051 4.38932033 -22 4 C-22 3.67 -22 3.34 -22 3 C-19.27172635 2.49465273 -16.54255306 1.99556155 -13.8125 1.5 C-13.04357422 1.35691406 -12.27464844 1.21382812 -11.48242188 1.06640625 C-7.60578227 0.36761285 -3.958529 -0.19039017 0 0 Z " fill="#91D2CC" transform="translate(258,28)"/>
<path d="M0 0 C1.91302307 3.26613695 2.35674661 5.99445248 2.625 9.75 C2.69976563 10.73484375 2.77453125 11.7196875 2.8515625 12.734375 C2.92503906 13.85585937 2.92503906 13.85585937 3 15 C2.34 15 1.68 15 1 15 C0.93941406 14.31292969 0.87882813 13.62585938 0.81640625 12.91796875 C0.73261719 12.01691406 0.64882813 11.11585938 0.5625 10.1875 C0.48128906 9.29417969 0.40007813 8.40085938 0.31640625 7.48046875 C0.06510233 4.87256441 0.06510233 4.87256441 -1 2 C-0.67 1.34 -0.34 0.68 0 0 Z " fill="#FDE85A" transform="translate(764,201)"/>
<path d="M0 0 C4.01412909 1.33804303 4.73005954 3.52415367 7 7 C7.99 7.66 8.98 8.32 10 9 C10 10.32 10 11.64 10 13 C9.34 13 8.68 13 8 13 C6.55265194 11.07310891 5.189953 9.08206043 3.875 7.0625 C3.15054688 5.96035156 2.42609375 4.85820312 1.6796875 3.72265625 C0 1 0 1 0 0 Z " fill="#FC8B3E" transform="translate(588,387)"/>
<path d="M0 0 C0.66 0 1.32 0 2 0 C0.55575365 3.23861303 -1.25772247 5.61969163 -3.625 8.25 C-4.25664063 8.95640625 -4.88828125 9.6628125 -5.5390625 10.390625 C-6.02117188 10.92171875 -6.50328125 11.4528125 -7 12 C-7.66 11.67 -8.32 11.34 -9 11 C-7.625 9 -7.625 9 -6 7 C-5.34 7 -4.68 7 -4 7 C-3.71125 6.401875 -3.4225 5.80375 -3.125 5.1875 C-2 3 -2 3 0 0 Z " fill="#15A0AB" transform="translate(725,210)"/>
<path d="M0 0 C0.66 0 1.32 0 2 0 C1.57781184 1.6498275 1.13675575 3.29483665 0.6875 4.9375 C0.44386719 5.85402344 0.20023437 6.77054688 -0.05078125 7.71484375 C-0.36402344 8.46894531 -0.67726563 9.22304688 -1 10 C-1.99 10.33 -2.98 10.66 -4 11 C-3.5247412 9.35303396 -3.04468109 7.70745272 -2.5625 6.0625 C-2.29566406 5.14597656 -2.02882813 4.22945312 -1.75390625 3.28515625 C-1 1 -1 1 0 0 Z " fill="#D247A8" transform="translate(419,627)"/>
<path d="M0 0 C3.63 0 7.26 0 11 0 C7.99895182 1.50052409 5.90648893 2.38848592 2.75 3.125 C1.5125 3.41375 0.275 3.7025 -1 4 C-0.67 2.68 -0.34 1.36 0 0 Z " fill="#5156B9" transform="translate(401,377)"/>
<path d="M0 0 C0.66 0.33 1.32 0.66 2 1 C-1.96 4.465 -1.96 4.465 -6 8 C-6.66 7.67 -7.32 7.34 -8 7 C-3.76744186 1.25581395 -3.76744186 1.25581395 0 0 Z " fill="#1999A9" transform="translate(705,232)"/>
<path d="M0 0 C0.66 0.66 1.32 1.32 2 2 C-0.31 4.31 -2.62 6.62 -5 9 C-5.66 8.34 -6.32 7.68 -7 7 C-4.69 4.69 -2.38 2.38 0 0 Z " fill="#2FA49C" transform="translate(713,224)"/>
<path d="M0 0 C6.40353322 -0.2361959 11.84629161 0.176679 18 2 C18 2.33 18 2.66 18 3 C16.52093108 3.02689216 15.04172517 3.04634621 13.5625 3.0625 C12.32693359 3.07990234 12.32693359 3.07990234 11.06640625 3.09765625 C9 3 9 3 8 2 C6.65252916 1.76924918 5.29622435 1.58846937 3.9375 1.4375 C2.638125 1.293125 1.33875 1.14875 0 1 C0 0.67 0 0.34 0 0 Z " fill="#6CE3CF" transform="translate(492,27)"/>
<path d="M0 0 C-1.45264038 0.8638129 -2.9123163 1.71580454 -4.375 2.5625 C-5.59316406 3.27599609 -5.59316406 3.27599609 -6.8359375 4.00390625 C-7.55007813 4.33261719 -8.26421875 4.66132812 -9 5 C-9.66 4.67 -10.32 4.34 -11 4 C-7.51147246 0.16261971 -5.09041622 -1.48780432 0 0 Z " fill="#EE71A0" transform="translate(550,613)"/>
<path d="M0 0 C5.94 1.485 5.94 1.485 12 3 C12 3.33 12 3.66 12 4 C7.01137151 4.29344873 4.03770942 4.05887078 0 1 C0 0.67 0 0.34 0 0 Z " fill="#B738AF" transform="translate(175,522)"/>
<path d="M0 0 C2 1.125 2 1.125 4 3 C4.25 6.1875 4.25 6.1875 4 9 C3.34 9 2.68 9 2 9 C0.50178941 5.62902617 0 3.79557881 0 0 Z " fill="#3C526E" transform="translate(49,407)"/>
<path d="M0 0 C1.48280196 0.78483659 2.9611498 1.57809334 4.4375 2.375 C5.67306641 3.03628906 5.67306641 3.03628906 6.93359375 3.7109375 C9 5 9 5 10 7 C6.00118212 6.38479725 3.19641774 4.39731331 0 2 C0 1.34 0 0.68 0 0 Z " fill="#66E0CC" transform="translate(683,76)"/>
<path d="M0 0 C0.66 0.33 1.32 0.66 2 1 C-0.64 3.64 -3.28 6.28 -6 9 C-6.66 8.34 -7.32 7.68 -8 7 C-5.36 4.69 -2.72 2.38 0 0 Z " fill="#9B1DC7" transform="translate(119,479)"/>
<path d="M0 0 C0.6875 1.8125 0.6875 1.8125 1 4 C-0.4375 5.75 -0.4375 5.75 -2 7 C-2.99 6.67 -3.98 6.34 -5 6 C-3.35 4.02 -1.7 2.04 0 0 Z " fill="#4B8D8B" transform="translate(81,118)"/>
<path d="M0 0 C0.99 0.495 0.99 0.495 2 1 C2.73075648 3.3140622 3.40138258 5.64828869 4 8 C2.68 7.67 1.36 7.34 0 7 C0 4.69 0 2.38 0 0 Z " fill="#FCE667" transform="translate(748,152)"/>
<path d="M0 0 C1.65 0 3.3 0 5 0 C5 0.99 5 1.98 5 3 C6.32 3.66 7.64 4.32 9 5 C4.68607774 4.5206753 2.83430453 3.2542015 0 0 Z " fill="#B14BD6" transform="translate(107,487)"/>
<path d="M0 0 C1 3 1 3 0.1875 5.625 C-1 8 -1 8 -3 9 C-3.99 8.34 -4.98 7.68 -6 7 C-5.071875 6.6596875 -5.071875 6.6596875 -4.125 6.3125 C-1.38589791 4.62070165 -0.94975528 3.00755839 0 0 Z " fill="#F97555" transform="translate(535,414)"/>
<path d="M0 0 C0.66 0.66 1.32 1.32 2 2 C5.08347826 2.16681109 5.08347826 2.16681109 8 2 C7.67 2.66 7.34 3.32 7 4 C3.9375 4.625 3.9375 4.625 1 5 C0.67 3.35 0.34 1.7 0 0 Z " fill="#1D7F95" transform="translate(644,269)"/>
</svg>
